<?xml version="1.0" standalone="no"?>
<!DOCTYPE svg PUBLIC "-//W3C//DTD SVG 20010904//EN"
 "http://www.w3.org/TR/2001/REC-SVG-20010904/DTD/svg10.dtd">
<svg version="1.0" xmlns="http://www.w3.org/2000/svg"
 width="300.000000pt" height="277.000000pt" viewBox="0 0 300.000000 277.000000"
 preserveAspectRatio="xMidYMid meet">
<metadata>
Created by potrace 1.10, written by Peter Selinger 2001-2011
</metadata>
<g transform="translate(0.000000,277.000000) scale(0.100000,-0.100000)"
fill="#000000" stroke="none">
<path d="M2073 2601 c-4 -18 -11 -21 -40 -17 -20 2 -39 10 -44 17 -9 16 -11
14 -33 -29 -9 -18 -13 -38 -9 -45 12 -18 10 -456 -2 -461 -7 -3 -7 -7 0 -13 9
-7 11 -30 6 -71 0 -6 -4 -11 -8 -11 -18 4 -74 -15 -84 -27 -6 -8 -16 -14 -21
-14 -5 0 -33 -11 -61 -24 -29 -14 -73 -28 -99 -31 -33 -5 -48 -12 -48 -22 0
-8 36 -50 80 -93 86 -86 122 -102 182 -81 37 13 45 7 54 -35 5 -28 2 -34 -33
-55 -21 -13 -41 -23 -45 -21 -5 1 -8 -3 -8 -9 0 -5 -4 -8 -9 -5 -5 3 -14 -1
-21 -9 -7 -8 -17 -15 -22 -15 -5 0 -28 -9 -51 -21 -23 -11 -53 -23 -66 -25
-13 -3 -28 -6 -33 -7 -5 -1 -16 18 -25 43 -8 25 -24 57 -34 72 -11 14 -19 33
-19 41 0 8 -11 18 -25 21 -14 4 -25 13 -25 22 0 8 -7 17 -15 20 -8 4 -15 12
-15 20 0 8 -5 14 -11 14 -15 0 -39 26 -32 34 4 3 -1 6 -9 6 -8 0 -24 11 -34
25 -10 14 -22 25 -25 25 -12 0 -17 -37 -7 -54 5 -9 5 -16 0 -16 -17 0 -45
-157 -37 -215 4 -36 3 -55 -4 -55 -6 0 -8 -7 -5 -15 4 -9 0 -15 -9 -15 -8 0
-32 -25 -52 -55 -21 -30 -47 -57 -57 -61 -11 -3 -43 -28 -71 -55 -29 -26 -68
-56 -87 -66 -19 -10 -44 -28 -55 -41 -33 -36 -45 -12 -45 94 0 150 7 181 53
226 22 21 50 41 63 44 13 3 24 10 24 15 0 5 5 9 12 9 15 0 162 73 166 83 2 4
10 7 18 7 8 0 14 5 14 10 0 6 9 19 21 31 20 20 20 21 3 47 -10 15 -26 33 -36
40 -20 14 -24 47 -7 57 5 4 -11 18 -38 32 -26 14 -50 29 -53 33 -3 4 -22 13
-42 19 -40 13 -104 67 -110 91 -2 8 -6 17 -10 20 -11 9 -15 63 -7 94 5 16 9
47 10 70 1 25 10 50 23 64 17 19 21 37 21 94 0 63 -3 72 -26 92 -24 20 -36 23
-100 20 -41 -2 -83 -4 -94 -4 -11 0 -33 0 -49 0 -17 0 -36 -5 -43 -12 -20 -21
-17 -102 5 -132 29 -38 73 -310 61 -381 -4 -27 -8 -55 -8 -62 -1 -6 -11 -15
-23 -19 -13 -3 -35 -15 -50 -25 -14 -11 -33 -19 -41 -19 -8 0 -44 -16 -79 -36
-34 -20 -69 -37 -75 -37 -7 0 -13 -3 -13 -7 0 -3 -20 -14 -45 -24 -25 -11 -45
-23 -45 -28 0 -4 -7 -8 -15 -8 -8 0 -15 -4 -15 -9 0 -5 -15 -12 -32 -15 -18
-3 -51 -22 -72 -41 -22 -19 -46 -35 -53 -35 -7 0 -13 -3 -13 -8 0 -10 92 -67
104 -64 4 2 5 -9 2 -23 -4 -15 -3 -24 2 -21 5 3 14 -6 20 -19 7 -14 17 -25 24
-25 6 0 22 -9 34 -20 12 -12 34 -22 48 -23 18 -1 38 -15 55 -36 25 -31 33 -34
76 -33 26 0 50 5 54 10 3 6 17 12 31 13 14 2 28 8 31 12 3 5 13 2 21 -6 10
-10 15 -41 16 -100 1 -47 5 -103 10 -124 8 -34 6 -43 -14 -69 -27 -32 -30 -50
-11 -57 23 -8 -123 -106 -160 -107 -7 0 -17 -9 -23 -19 -5 -11 -22 -22 -38
-25 -40 -9 -54 -36 -39 -75 6 -17 18 -33 27 -36 18 -6 60 -66 60 -86 0 -17 50
-65 64 -61 4 2 19 -4 32 -13 22 -14 25 -13 71 30 26 24 51 45 55 45 11 0 138
125 138 136 0 5 9 15 19 21 11 7 22 25 26 41 3 16 21 44 40 62 19 19 35 39 35
46 0 6 21 40 47 76 55 74 66 91 89 133 9 17 37 53 63 80 26 28 58 65 73 84
l26 34 16 -30 c8 -17 12 -33 9 -37 -4 -3 2 -6 11 -6 13 0 17 -6 13 -20 -3 -13
3 -28 19 -42 13 -13 24 -31 24 -40 0 -9 12 -30 26 -45 14 -15 34 -44 45 -63
10 -19 18 -31 19 -27 0 5 23 -10 51 -32 29 -23 57 -41 64 -41 7 0 24 -9 39
-21 22 -17 42 -21 106 -22 44 -1 81 1 83 5 1 4 8 4 15 -1 15 -9 19 -63 26
-321 3 -91 7 -187 10 -215 4 -27 9 -88 12 -135 3 -46 12 -99 20 -117 14 -28
18 -31 35 -20 10 6 19 15 19 19 0 5 0 10 0 13 1 2 12 29 25 60 14 30 25 57 24
60 -1 18 15 82 24 93 5 7 11 46 12 86 1 41 6 79 9 85 14 21 28 128 32 239 2
63 9 122 14 132 6 10 10 27 10 38 0 30 106 55 158 36 49 -16 143 -9 155 12 5
8 20 19 33 24 26 10 32 37 10 46 -10 4 -12 16 -9 45 4 29 1 45 -11 58 -16 18
-16 20 9 45 14 15 38 51 51 81 14 30 29 55 34 55 5 0 14 16 20 35 6 19 16 35
20 35 5 0 7 6 4 14 -3 7 2 16 10 19 9 4 16 15 16 26 0 11 5 23 11 26 6 4 8 13
5 20 -2 7 6 17 20 24 13 6 24 19 24 30 0 10 7 24 15 31 8 7 27 50 41 96 32
101 28 136 -21 194 -19 23 -35 46 -35 51 0 6 -21 29 -46 53 -64 61 -125 69
-382 54 l-124 -8 4 80 c2 44 7 80 12 80 5 0 5 6 0 13 -10 13 -10 15 0 107 4
36 9 88 12 115 3 28 7 71 10 96 6 44 5 46 -28 62 -19 9 -53 19 -77 23 -38 6
-43 4 -48 -15z m109 -32 c14 -8 16 -20 12 -82 -3 -39 -6 -90 -7 -112 -2 -22
-5 -44 -9 -50 -3 -5 -9 -71 -13 -145 -9 -182 -18 -174 186 -161 232 16 322 -7
365 -92 9 -18 27 -44 41 -58 13 -14 26 -42 30 -61 7 -46 -26 -148 -70 -213
-44 -66 -40 -60 -86 -154 -23 -47 -46 -90 -51 -96 -6 -7 -22 -34 -36 -61 -14
-27 -35 -59 -47 -71 -18 -20 -19 -27 -9 -60 6 -21 14 -57 17 -80 4 -37 2 -44
-19 -58 -31 -21 -92 -25 -143 -10 -34 10 -53 10 -98 0 -74 -18 -92 -35 -100
-99 -4 -28 -9 -64 -11 -81 -3 -16 -6 -55 -8 -85 -6 -94 -17 -173 -33 -220 -8
-24 -11 -55 -8 -68 9 -36 -65 -292 -84 -292 -13 0 -31 211 -41 485 -9 216 -14
273 -26 285 -10 11 -39 15 -102 16 -72 1 -94 5 -127 24 -138 80 -173 117 -255
275 -45 86 -67 115 -84 115 -15 0 -151 -150 -177 -196 -13 -22 -37 -57 -54
-79 -17 -22 -48 -68 -69 -101 -20 -34 -51 -74 -67 -90 -16 -15 -29 -35 -29
-44 0 -47 -232 -266 -277 -262 -38 3 -61 20 -78 56 -9 19 -32 52 -51 74 -40
47 -43 69 -10 82 13 5 26 13 29 17 3 5 40 27 83 49 76 39 132 93 119 114 -4 6
3 27 15 47 20 33 20 41 10 132 -5 53 -11 116 -13 141 -3 56 -29 74 -82 56 -19
-7 -38 -15 -41 -19 -4 -4 -27 -7 -50 -7 -36 0 -46 5 -64 30 -12 16 -36 33 -55
39 -46 12 -94 48 -105 77 -5 13 -27 36 -49 52 l-41 30 38 25 c38 26 251 141
332 178 186 87 195 98 185 234 -3 50 -8 101 -10 115 -2 14 -6 48 -10 75 -4 28
-16 75 -27 105 -12 30 -21 73 -22 95 l-1 40 55 4 c140 10 181 7 196 -13 22
-31 17 -103 -11 -151 -18 -32 -26 -63 -31 -132 -6 -84 -5 -92 19 -129 36 -56
72 -87 155 -129 39 -21 72 -42 72 -47 0 -5 -4 -7 -9 -4 -5 3 -14 -1 -21 -9
-10 -12 -10 -18 0 -30 7 -8 17 -12 22 -9 11 7 68 -44 68 -61 0 -22 -46 -54
-145 -101 -119 -56 -179 -97 -205 -140 -17 -27 -20 -50 -20 -172 0 -138 1
-142 24 -157 22 -15 27 -14 87 27 35 24 70 51 77 60 7 10 37 34 68 54 30 20
83 71 117 112 l62 77 1 80 c1 98 13 171 29 185 17 14 48 -12 119 -99 52 -63
56 -71 44 -91 -11 -17 -11 -22 1 -29 8 -5 20 -7 28 -4 7 3 13 -1 13 -10 0 -8
9 -26 20 -40 20 -25 22 -25 63 -13 62 19 235 107 261 133 29 29 24 85 -10 112
-20 16 -30 17 -58 9 -19 -6 -44 -8 -57 -5 -29 8 -149 114 -149 131 0 8 15 16
33 19 17 3 70 23 117 46 47 22 90 41 96 41 6 0 20 11 32 23 22 23 22 31 23
268 0 134 -1 262 -3 284 l-3 40 45 -3 c36 -3 50 1 65 18 19 21 55 21 97 -1z
m-592 -1029 c0 -5 -4 -10 -10 -10 -5 0 -10 5 -10 10 0 6 5 10 10 10 6 0 10 -4
10 -10z"/>
<path d="M2330 1868 c-25 -5 -55 -11 -67 -14 -13 -2 -38 -18 -58 -35 -32 -29
-35 -35 -35 -89 0 -58 25 -110 54 -110 6 0 21 -7 34 -15 18 -14 20 -19 9 -36
-10 -17 -9 -22 6 -30 21 -12 57 -50 57 -60 0 -4 -13 -12 -29 -17 -42 -15 -116
-72 -135 -104 -19 -32 -22 -158 -4 -176 79 -79 300 203 358 458 7 30 16 60 20
65 5 6 14 39 21 74 13 62 13 64 -10 82 -19 15 -38 19 -100 18 -42 -1 -96 -6
-121 -11z m212 -32 c4 -6 5 -18 2 -26 -4 -8 -11 -33 -16 -55 -5 -21 -13 -44
-17 -50 -9 -11 -21 -55 -26 -97 -2 -15 -14 -46 -26 -70 -12 -24 -21 -44 -19
-46 3 -4 -50 -109 -65 -130 -5 -8 -20 -25 -32 -38 -13 -14 -23 -29 -23 -33 0
-7 -64 -68 -95 -89 -5 -4 -20 -7 -33 -8 -21 -1 -22 2 -16 65 7 84 17 104 70
137 24 16 44 32 44 37 0 4 4 5 10 2 12 -8 70 25 70 40 0 6 -14 23 -32 39 -24
21 -27 27 -13 24 12 -2 21 3 23 13 4 21 -85 95 -117 97 -32 1 -32 2 -34 67 -3
51 0 61 22 81 14 13 30 25 36 26 22 3 32 5 85 16 102 22 187 21 202 -2z m-247
-276 c3 -5 1 -10 -4 -10 -6 0 -11 5 -11 10 0 6 2 10 4 10 3 0 8 -4 11 -10z"/>
<path d="M1697 1332 c-23 -25 -21 -69 3 -120 11 -22 20 -47 20 -55 0 -33 34
-47 104 -42 37 3 79 10 94 17 23 11 27 20 30 65 3 44 0 53 -20 67 -12 9 -39
16 -58 16 -24 0 -50 10 -76 29 -55 40 -77 45 -97 23z m82 -49 c42 -29 64 -38
100 -38 l46 -1 0 -44 c0 -40 -2 -43 -30 -48 -16 -2 -47 -4 -67 -4 -21 1 -38
-2 -38 -7 0 -15 -40 0 -41 15 -3 28 -4 32 -11 40 -5 4 -8 16 -8 26 0 10 -4 18
-9 18 -5 0 -11 9 -14 20 -3 11 0 20 6 20 8 0 7 4 -1 12 -7 7 -12 16 -12 20 0
17 27 7 79 -29z"/>
</g>
</svg>
